# xmcd
#
# Track frame offsets:
#	150
#	20319
#	45646
#	77860
#	91021
#	127860
#	144776
#
# Disc length: 2189 seconds
#
# Revision: 0
# Processed by: cddbd v1.5.2PL0 Copyright (c) Steve Scherf et al.
# Submitted via: audiograbber 1.83.01
#
DISCID=45088b07
DTITLE=Marillion - Unplugged At The Walls [2018 Limited Edition] [CD 2)
DYEAR=1999
DGENRE=Progressive Rock
TTITLE0=The Answering Machine [live]
TTITLE1=Gazpacho [live]
TTITLE2=Cannibal Surf Babe [live]
TTITLE3=Blackbird [live]
TTITLE4=Abraham, Martin And John [live]
TTITLE5=Hooks In You [live]
TTITLE6=Eighty Days [live]
EXTD=
EXTT0=
EXTT1=
EXTT2=
EXTT3=
EXTT4=
EXTT5=
EXTT6=
PLAYORDER=
